<svg width="171" height="72" viewBox="0 0 171 72" fill="none" xmlns="http://www.w3.org/2000/svg">
<g clip-path="url(#clip0_12317_1030)">
<path d="M26.092 67.1682C24.8815 68.4827 23.4839 69.5478 21.8888 70.3583C20.2938 71.174 18.6052 71.6832 16.818 71.8962C15.4463 72.0572 14.1059 72.0365 12.7966 71.8286C11.4873 71.6208 10.2352 71.2571 9.0506 70.7376C7.86602 70.218 6.76456 69.553 5.74104 68.7477C4.71751 67.9424 3.81868 67.0227 3.03415 65.9888C2.24962 64.9549 1.61057 63.8275 1.10141 62.6013C0.597436 61.3752 0.264921 60.0763 0.103859 58.7047C-0.0572035 57.333 -0.0364212 55.9874 0.171401 54.6729C0.379223 53.3532 0.742912 52.1011 1.26247 50.9165C1.78202 49.7319 2.44705 48.6305 3.25237 47.6069C4.05768 46.5834 4.97729 45.6846 6.0112 44.9001C7.04512 44.1207 8.17256 43.4765 9.39871 42.9673C10.6249 42.4633 11.9237 42.1308 13.2954 41.9698C15.0826 41.762 16.8439 41.8607 18.5844 42.2763C20.3198 42.692 21.9304 43.4037 23.4111 44.4169L20.938 49.8151C19.9821 48.9994 18.9014 48.4175 17.6856 48.0642C16.4699 47.7109 15.2333 47.607 13.9708 47.7524C12.7083 47.8979 11.5289 48.2824 10.469 48.9006C9.4091 49.5137 8.51546 50.2827 7.77769 51.2075C7.03992 52.1323 6.49959 53.1818 6.14629 54.3612C5.79299 55.5406 5.69428 56.7615 5.83975 58.024C5.98523 59.2866 6.3697 60.4452 6.98277 61.4947C7.59585 62.5442 8.36999 63.4378 9.29999 64.1756C10.23 64.9133 11.2847 65.4537 12.4537 65.807C13.6279 66.1603 14.8488 66.259 16.127 66.1083C17.4051 65.9577 18.5689 65.5732 19.6703 64.9445C20.7666 64.3159 21.6862 63.5002 22.424 62.487L26.0816 67.1682H26.092Z" fill="#FFFAF3"/>
<path d="M45.4507 54.9846C45.4507 56.6056 45.1597 58.1227 44.5778 59.5203C43.9959 60.9231 43.2062 62.1337 42.2035 63.152C41.2007 64.1755 40.0265 64.9808 38.6809 65.5679C37.3352 66.155 35.8909 66.4512 34.3478 66.4512C32.8047 66.4512 31.3811 66.155 30.0355 65.5679C28.6898 64.9808 27.5104 64.1755 26.5025 63.152C25.4945 62.1285 24.6996 60.9179 24.1177 59.5203C23.5358 58.1175 23.2449 56.6056 23.2449 54.9846C23.2449 53.3636 23.5358 51.8049 24.1177 50.3969C24.6996 48.9889 25.4945 47.7784 26.5025 46.7548C27.5104 45.7313 28.6898 44.9312 30.0355 44.3493C31.3811 43.7674 32.8203 43.4764 34.3478 43.4764C35.8753 43.4764 37.3352 43.7518 38.6809 44.2973C40.0265 44.8429 41.2007 45.6222 42.2035 46.6301C43.2062 47.6381 43.9959 48.8486 44.5778 50.2618C45.1597 51.675 45.4507 53.2493 45.4507 54.9794V54.9846ZM39.8706 54.9846C39.8706 54.091 39.7252 53.2857 39.4342 52.5583C39.1433 51.8361 38.7484 51.2126 38.2444 50.6931C37.7457 50.1735 37.1586 49.7735 36.4883 49.4981C35.8181 49.2227 35.1063 49.0824 34.3478 49.0824C33.5892 49.0824 32.8774 49.2227 32.2072 49.4981C31.537 49.7735 30.9551 50.1735 30.4615 50.6931C29.9679 51.2126 29.5783 51.8361 29.2925 52.5583C29.0067 53.2805 28.8665 54.091 28.8665 54.9846C28.8665 55.8263 29.0067 56.6004 29.2925 57.3174C29.5783 58.0344 29.9627 58.6579 30.4615 59.1826C30.9551 59.7126 31.537 60.1282 32.2072 60.4295C32.8774 60.7309 33.5892 60.8867 34.3478 60.8867C35.1063 60.8867 35.8181 60.7465 36.4883 60.4607C37.1586 60.175 37.7457 59.7801 38.2444 59.2657C38.7432 58.7514 39.1381 58.1279 39.4342 57.4005C39.7252 56.668 39.8706 55.8626 39.8706 54.9846Z" fill="#FFFAF3"/>
<path d="M65.3652 54.9846C65.3652 56.6056 65.0743 58.1227 64.4924 59.5203C63.9105 60.9231 63.1207 62.1337 62.118 63.152C61.1153 64.1755 59.9411 64.9808 58.5954 65.5679C57.2498 66.155 55.8054 66.4512 54.2623 66.4512C52.7192 66.4512 51.2957 66.155 49.95 65.5679C48.6044 64.9808 47.425 64.1755 46.417 63.152C45.4091 62.1285 44.6142 60.9179 44.0323 59.5203C43.4504 58.1175 43.1594 56.6056 43.1594 54.9846C43.1594 53.3636 43.4504 51.8049 44.0323 50.3969C44.6142 48.9889 45.4091 47.7784 46.417 46.7548C47.425 45.7313 48.6044 44.9312 49.95 44.3493C51.2957 43.7674 52.7348 43.4764 54.2623 43.4764C55.7898 43.4764 57.2498 43.7518 58.5954 44.2973C59.9411 44.8429 61.1153 45.6222 62.118 46.6301C63.1207 47.6381 63.9105 48.8486 64.4924 50.2618C65.0743 51.675 65.3652 53.2493 65.3652 54.9794V54.9846ZM59.7852 54.9846C59.7852 54.091 59.6397 53.2857 59.3488 52.5583C59.0578 51.8361 58.663 51.2126 58.159 50.6931C57.6602 50.1735 57.0731 49.7735 56.4029 49.4981C55.7327 49.2227 55.0209 49.0824 54.2623 49.0824C53.5038 49.0824 52.792 49.2227 52.1218 49.4981C51.4515 49.7735 50.8696 50.1735 50.376 50.6931C49.8825 51.2126 49.4928 51.8361 49.207 52.5583C48.9213 53.2805 48.781 54.091 48.781 54.9846C48.781 55.8263 48.9213 56.6004 49.207 57.3174C49.4928 58.0344 49.8773 58.6579 50.376 59.1826C50.8696 59.7126 51.4515 60.1282 52.1218 60.4295C52.792 60.7309 53.5038 60.8867 54.2623 60.8867C55.0209 60.8867 55.7327 60.7465 56.4029 60.4607C57.0731 60.175 57.6602 59.7801 58.159 59.2657C58.6578 58.7514 59.0526 58.1279 59.3488 57.4005C59.6397 56.668 59.7852 55.8626 59.7852 54.9846Z" fill="#FFFAF3"/>
<path d="M72.0363 66.046H66.4563V35.6624H72.0363V54.8236L80.2973 44.3493H86.6722L79.466 53.4L86.6722 66.046H80.2973L75.8914 58.1487L72.0363 63.2611V66.0408V66.046Z" fill="#FFFAF3"/>
<path d="M92.9016 38.4056C92.9016 38.9199 92.8029 39.3979 92.6055 39.8448C92.408 40.2916 92.143 40.6812 91.8053 41.0138C91.4676 41.3463 91.0728 41.6112 90.6156 41.8035C90.1635 42.0009 89.6804 42.0996 89.166 42.0996C88.6516 42.0996 88.1684 42.0009 87.7164 41.8035C87.2644 41.6061 86.8696 41.3463 86.537 41.0138C86.2045 40.6812 85.9395 40.2916 85.7473 39.8448C85.5499 39.3979 85.4512 38.9199 85.4512 38.4056C85.4512 37.8912 85.5499 37.4288 85.7473 36.9768C85.9447 36.5248 86.2045 36.1299 86.537 35.7974C86.8696 35.4649 87.2592 35.1999 87.7164 35.0077C88.1684 34.8103 88.6516 34.7115 89.166 34.7115C89.6804 34.7115 90.1635 34.8103 90.6156 35.0077C91.0676 35.2051 91.4624 35.4701 91.8053 35.7974C92.143 36.1299 92.4132 36.5196 92.6055 36.9768C92.8029 37.4288 92.9016 37.9068 92.9016 38.4056ZM91.9456 66.0459H86.3656V44.3077H91.9456V66.0459Z" fill="#FFFAF3"/>
<path d="M99.2142 66.046H93.6758V44.3077H95.0162L96.8451 46.4171C97.7387 45.6066 98.7518 44.978 99.8793 44.5416C101.007 44.0999 102.191 43.8817 103.423 43.8817C104.748 43.8817 106 44.1363 107.179 44.6403C108.358 45.1442 109.382 45.8456 110.265 46.7289C111.143 47.6173 111.839 48.6512 112.343 49.8358C112.853 51.0204 113.102 52.2829 113.102 53.6234V66.046H107.563V53.6234C107.563 53.0571 107.454 52.5167 107.241 52.0076C107.023 51.4984 106.727 51.0568 106.348 50.6775C105.968 50.2982 105.527 50.0021 105.028 49.7839C104.529 49.5657 103.994 49.4617 103.423 49.4617C102.851 49.4617 102.295 49.5708 101.781 49.7839C101.266 50.0021 100.82 50.2982 100.44 50.6775C100.061 51.0568 99.765 51.4984 99.5468 52.0076C99.3285 52.5167 99.2246 53.0519 99.2246 53.6234V66.046H99.2142Z" fill="#FFFAF3"/>
<path d="M120.08 40.3539C120.08 40.9514 120.022 41.5904 119.908 42.2711C119.794 42.9569 119.612 43.6323 119.363 44.3025C119.113 44.9727 118.786 45.6118 118.381 46.2197C117.975 46.8276 117.487 47.3419 116.921 47.7628L114.728 46.2197C115.092 45.7885 115.372 45.3728 115.559 44.9831C115.747 44.5935 115.897 44.1986 116.006 43.8037C115.601 43.7362 115.222 43.6011 114.868 43.3985C114.515 43.1959 114.214 42.9413 113.964 42.6399C113.715 42.3334 113.512 41.9853 113.367 41.5956C113.216 41.206 113.144 40.7903 113.144 40.3591C113.144 39.9019 113.237 39.4603 113.419 39.0394C113.601 38.6186 113.85 38.2497 114.172 37.9328C114.494 37.6158 114.853 37.3665 115.269 37.1794C115.679 36.9976 116.126 36.9041 116.599 36.9041C117.071 36.9041 117.544 36.9976 117.97 37.1794C118.396 37.3613 118.765 37.6106 119.077 37.9328C119.389 38.2497 119.633 38.6186 119.82 39.0394C120.002 39.4603 120.095 39.8967 120.095 40.3591L120.08 40.3539Z" fill="#FFFAF3"/>
<path d="M144.946 54.4183C144.946 56.0289 144.639 57.5409 144.031 58.954C143.423 60.3672 142.592 61.5986 141.537 62.6481C140.483 63.6976 139.246 64.5237 137.833 65.1368C136.42 65.7446 134.908 66.0512 133.297 66.0512C131.687 66.0512 130.175 65.7446 128.761 65.1368C127.348 64.5289 126.117 63.6976 125.067 62.6481C124.018 61.5986 123.192 60.3672 122.579 58.954C121.971 57.5409 121.664 56.0289 121.664 54.4183V36.9457H127.468V54.4183C127.468 55.2184 127.618 55.9666 127.925 56.6732C128.231 57.3746 128.647 57.9929 129.172 58.5176C129.697 59.0424 130.32 59.4632 131.027 59.7646C131.733 60.0659 132.492 60.2218 133.292 60.2218C134.092 60.2218 134.845 60.0711 135.557 59.7646C136.269 59.458 136.887 59.0424 137.412 58.5176C137.937 57.9929 138.358 57.3746 138.659 56.6732C138.966 55.9718 139.116 55.2184 139.116 54.4183V36.9457H144.94V54.4183H144.946Z" fill="#FFFAF3"/>
<path d="M153.331 66.0459H147.507V36.9404H159.155C160.226 36.9404 161.254 37.0807 162.241 37.3561C163.229 37.6314 164.153 38.0263 165.011 38.5355C165.868 39.0446 166.652 39.6525 167.364 40.3643C168.076 41.0761 168.684 41.8606 169.193 42.7283C169.702 43.5959 170.092 44.5207 170.372 45.5079C170.648 46.4951 170.788 47.5238 170.788 48.5941C170.788 50.1891 170.482 51.6958 169.874 53.109C169.266 54.5222 168.435 55.7587 167.38 56.8134C166.325 57.8681 165.089 58.6994 163.675 59.3073C162.262 59.9152 160.755 60.2217 159.16 60.2217H153.336V66.0459H153.331ZM153.331 42.7698V54.4183H159.155C159.955 54.4183 160.704 54.2676 161.41 53.9611C162.112 53.6545 162.73 53.2389 163.255 52.7141C163.779 52.1894 164.2 51.5659 164.501 50.8593C164.803 50.1527 164.959 49.3942 164.959 48.5941C164.959 47.7939 164.808 47.0406 164.501 46.3288C164.195 45.617 163.779 44.9987 163.255 44.474C162.73 43.9492 162.112 43.5284 161.41 43.227C160.709 42.9205 159.955 42.7698 159.155 42.7698H153.331Z" fill="#FFFAF3"/>
<path d="M20.4287 22.98C20.4287 22.98 25.8788 25.3699 37.2987 13.3007C48.7185 1.23139 53.2542 5.96454 55.374 8.89483C57.4938 11.8199 57.499 18.1533 53.7582 23.2138C54.2829 17.9091 54.5012 13.4305 53.2802 12.4953C53.753 14.6879 53.2802 21.4992 50.1681 23.0215C50.7084 17.6441 48.4847 14.5632 46.9105 13.815C48.4847 16.6778 47.8924 23.1982 47.8924 23.1982C47.8924 23.1982 36.9766 22.2942 27.5622 32.2229C38.2495 26.6584 48.4743 25.7544 54.0647 28.3054C54.5999 32.0306 55.426 35.2675 55.426 35.2675C55.426 35.2675 40.7381 31.589 28.222 42.8114C40.8265 36.3949 51.3163 37.408 58.3147 38.7381C56.1845 27.1884 56.1066 26.8403 56.1066 26.8403C56.1066 26.8403 66.5289 9.76249 57.6185 2.8472C48.7029 -4.06808 41.4188 2.8472 35.6569 10.7704C29.895 18.6936 24.0656 22.98 20.4287 22.9852V22.98Z" fill="#F0633C"/>
<path d="M26.253 17.0102C26.253 17.0102 14.2721 15.0463 13.1291 25.5621C11.986 36.0779 22.9694 34.857 22.9694 34.857L24.7775 42.2606C24.7775 42.2606 33.9113 34.7738 41.0708 34.3478C41.0708 34.3478 35.1218 33.2255 26.0296 38.1613C24.5385 32.4462 24.3359 31.8072 24.3359 31.8072C24.3359 31.8072 18.4233 33.9893 15.9606 28.1079C13.4979 22.2266 18.4701 16.8232 26.2582 17.0102H26.253Z" fill="#F0633C"/>
</g>
<defs>
<clipPath id="clip0_12317_1030">
<rect width="170.783" height="72" fill="white"/>
</clipPath>
</defs>
</svg>
